<svg version="1.1" id="レイヤー_1" xmlns="http://www.w3.org/2000/svg" xmlns:xlink="http://www.w3.org/1999/xlink" x="0px"
	 y="0px" viewBox="0 0 841.89 595.28" style="enable-background:new 0 0 841.89 595.28;" xml:space="preserve">
<path d="M324.86,284.34h-27.94c-3.76,0-6.81,3.04-6.81,6.8l0.01,44.14c0,23.26-19.07,42.17-42.5,42.17
	c-23.26,0-42.17-18.91-42.17-42.17v-44.14c0-3.76-3.05-6.8-6.8-6.8H170.7c-3.76,0-6.8,3.04-6.8,6.8v44.14
	c0,46.35,37.57,84.04,83.72,84.04c46.34,0,84.04-37.7,84.04-84.04v-44.14C331.66,287.38,328.61,284.34,324.86,284.34z"/>
<path d="M362.22,373.84h27.94c3.75,0,6.8-3.05,6.8-6.8v-46.12c0-23.25,19.05-42.16,42.49-42.16c23.25,0,42.17,18.91,42.17,42.16
	v46.12c0,3.75,3.05,6.8,6.8,6.8h27.94c3.76,0,6.81-3.05,6.81-6.8v-46.12c0-46.15-37.55-83.7-83.72-83.7
	c-46.35,0-84.04,37.55-84.04,83.7v46.12C355.42,370.79,358.47,373.84,362.22,373.84z"/>
<path d="M553.74,373.84h27.94c3.76,0,6.8-3.05,6.8-6.8v-46.12c0-23.25,19.07-42.16,42.51-42.16c23.25,0,42.16,18.91,42.16,42.16
	l0.01,46.12c0,3.75,3.04,6.8,6.79,6.8h27.94c3.77,0,6.8-3.05,6.8-6.8v-46.12c0-46.15-37.55-83.7-83.7-83.7
	c-46.35,0-84.05,37.55-84.05,83.7l-0.01,46.12C546.93,370.79,549.99,373.84,553.74,373.84z"/>
<path d="M774.4,281.94h-27.94c-3.76,0-6.8,3.05-6.8,6.8v78.3c0,3.75,3.04,6.8,6.8,6.8h27.94c3.76,0,6.8-3.05,6.8-6.8v-78.3
	C781.2,284.99,778.16,281.94,774.4,281.94z"/>
<path d="M761.8,215.74c-13.07,0-23.67,10.6-23.67,23.67c0,13.07,10.6,23.67,23.67,23.67c13.06,0,23.66-10.6,23.66-23.67
	C785.45,226.34,774.86,215.74,761.8,215.74z"/>
<path d="M133.34,174.54H105.4c-3.76,0-6.81,3.04-6.81,6.79V335.3c0,32.38-12.01,49.3-36.67,51.51c-0.02,0-0.04,0.03-0.05,0.03
	c-3.38,0.44-5.78,1.61-5.78,5.68v20.02c0,3.76,2.21,6.98,8.53,6.5c7.42-0.52,14.38-1.78,20.86-3.67l0.02-0.02c0.01,0,0.01,0,0.01,0
	c34.31-10.11,54.62-38.89,54.62-80.04V181.34C140.13,177.59,137.1,174.54,133.34,174.54z"/>
<path d="M372.52,416.97l4.41-18.59l4.42,18.59c0.27,1.16,1.65,4.19,5.12,4.19c0.63,0,4,0,4.96-3.57l6.88-25.79
	c0.05-0.2,0.14-0.65,0.14-1.11c0-1.72-0.86-3.45-3.28-3.45c-2.61,0-3.06,1.81-3.34,2.83l-5.36,21.27l-4.8-20.49
	c-0.5-2.08-2.38-3.57-4.66-3.57c-3.32,0-4.55,2.34-4.83,3.57l-4.79,20.49l-5.42-21.27c-0.5-1.89-1.55-2.83-3.15-2.83
	c-2.18,0-3.41,1.45-3.41,3.41c0,0.36,0.05,0.74,0.15,1.15l6.88,25.79c0.36,1.43,1.68,3.53,4.65,3.53
	C370.36,421.12,372.01,419.02,372.52,416.97z"/>
<path d="M412.82,418.2v-28c0-1.6-1.37-2.92-3.29-2.92c-2,0-3.05,1.52-3.05,2.92v28c0,1.6,1.36,2.92,3.24,2.92
	C411.63,421.12,412.82,419.8,412.82,418.2z"/>
<path d="M430.61,421.12c1.61,0,3.19-0.95,3.19-2.71v-24.71h7.9c1.27,0,3.17-0.74,3.17-2.68c0-1.55-1.27-2.99-3.17-2.99h-22.11
	c-1.25,0-3.21,0.95-3.21,2.83c0,1.69,1.32,2.84,3.21,2.84h7.87v24.8C427.45,419.48,428.23,421.12,430.61,421.12z"/>
<path d="M452.95,387.29c-1.82,0-3.05,1.4-3.05,2.92v28c0,1.64,1.46,2.92,3.25,2.92c2.09,0,3.1-1.85,3.1-2.92v-12.16h14.68v12.16
	c0,1.64,1.51,2.92,3.24,2.92c1.87,0,3.05-1.4,3.05-2.92v-28c0-1.6-1.41-2.92-3.24-2.92c-1.83,0-3.06,1.4-3.06,2.92v10.13h-14.68
	V390.2C456.24,388.52,454.72,387.29,452.95,387.29z"/>
<path d="M518.98,401.33h-10.76c-1.27,0-2.69,0.9-2.69,2.63c0,1.48,1.18,2.91,2.92,2.91h8.03c0.73,0,1.18,0.37,1.18,1.07v2.26
	c0,0.86-1.03,5.13-8.2,5.13c-6.84,0-11.13-4.36-11.13-10.8c0-5.59,3.33-11.65,10.94-11.65c3.11,0,4.78,0.77,7.16,2.91
	c1.91,1.77,2.65,1.81,3.32,1.81c1.92,0,2.93-1.6,2.93-2.92c0-3.07-5.8-7.38-13.88-7.38c-11.12,0-17.05,8.94-17.05,17.45
	c0,8.78,6.11,16.42,17.42,16.42c6.01,0,14.78-2.18,14.78-10.93v-4.18C523.96,402.19,520.73,401.33,518.98,401.33z"/>
<path d="M543.61,421.12c11.86,0,16.46-9.53,16.46-16.92c0-7.42-4.6-16.91-16.46-16.91c-11.89,0-16.5,9.44-16.5,16.91
	C527.11,411.59,531.72,421.12,543.61,421.12z M543.61,392.99c7.12,0,9.76,6.28,9.76,11.21c0,4.76-2.55,11.21-9.81,11.21
	c-7.06,0-9.8-6.24-9.8-11.21C533.76,398.86,536.72,392.99,543.61,392.99z"/>
<path d="M596.32,404.2c0-7.42-4.6-16.91-16.45-16.91c-11.91,0-16.51,9.44-16.51,16.91c0,7.39,4.6,16.92,16.51,16.92
	C591.72,421.12,596.32,411.59,596.32,404.2z M570.02,404.2c0-5.33,2.97-11.21,9.86-11.21c7.12,0,9.74,6.28,9.74,11.21
	c0,4.76-2.54,11.21-9.79,11.21C572.74,415.41,570.02,409.16,570.02,404.2z"/>
<path d="M615.25,420.37c9.24,0,14.82-6.6,14.82-16.18c0-8.62-4.79-16.18-14.82-16.18h-9.3c-3.38,0-4.8,2.22-4.8,4.77v22.82
	c0,2.51,1.42,4.76,4.8,4.76H615.25z M607.5,396.03c0-1.28,0.05-2.25,2.43-2.25h3.19c9.57,0,10.44,6.07,10.44,10.46
	c0,4.11-0.77,10.35-10.44,10.35h-3.19c-2.32,0-2.43-0.99-2.43-2.26V396.03z"/>
<path d="M649.91,418.41v-22.59l11.17,22.3c0.69,1.39,2.41,2.99,5.11,2.99c4.15,0,4.79-3.67,4.79-4.77v-26.44
	c0-1.81-1.64-2.63-3.1-2.63c-2.42,0-3.14,1.77-3.14,2.71v22.58l-11.19-22.3c-0.68-1.39-2.41-2.99-5.05-2.99
	c-4.19,0-4.83,3.64-4.83,4.77v26.44c0,1.8,1.64,2.63,3.11,2.63C649.19,421.12,649.91,419.4,649.91,418.41z"/>
<path d="M683.84,393.73h13.05c1.09,0,3.23-0.46,3.23-2.75c0-2.72-2.41-2.96-3.41-2.96h-15.46c-3.5,0-4.79,2.42-4.79,4.77v22.46
	c0,3.61,1.65,5.13,4.88,5.13h15.56c0.54,0,3.23-0.21,3.23-2.79c0-2.63-2.23-2.92-3.34-2.92h-12.66c-0.87,0-1.32-0.62-1.32-1.15v-7.1
	h12.99c0.47,0,2.82-0.17,2.82-2.66c0-1.36-0.96-2.83-2.99-2.83h-12.82v-5.95C682.79,394.35,683.02,393.73,683.84,393.73z"/>
<path d="M708.06,387.24c-2.2,0-3.41,1.45-3.41,3.41c0,0.36,0.02,0.74,0.13,1.15l6.89,25.79c0.36,1.43,1.68,3.53,4.64,3.53
	c3.28,0,4.94-2.1,5.42-4.15l4.42-18.59l4.42,18.59c0.28,1.16,1.64,4.19,5.11,4.19c0.64,0,4.01,0,4.97-3.57l6.88-25.79
	c0.05-0.2,0.14-0.65,0.14-1.11c0-1.72-0.87-3.45-3.28-3.45c-2.61,0-3.08,1.81-3.34,2.83l-5.38,21.27l-4.78-20.49
	c-0.51-2.08-2.37-3.57-4.66-3.57c-3.33,0-4.56,2.34-4.84,3.57l-4.77,20.49l-5.43-21.27C710.7,388.18,709.65,387.24,708.06,387.24z"
	/>
<path d="M767.47,401.53c-6.43-1.63-8.39-2.46-8.39-5.05c0-1.68,1.28-3.69,5.56-3.69c3.06,0,5.02,0.73,7.48,2.54
	c1.72,1.32,2.32,1.32,2.87,1.32c1.82,0,3.24-1.32,3.24-2.87c0-3.37-7.8-6.49-13.63-6.49c-7.61,0-12.22,3.81-12.22,9.32
	c0,4.43,2.88,7.51,10.39,9.6c7.16,2.01,9.07,2.78,9.07,5.26c0,2.35-2.86,3.89-6.16,3.89c-4.74,0-7.15-2.46-7.96-3.32
	c-2.1-2.17-2.39-2.43-3.74-2.43c-2.06,0-3.28,1.44-3.28,2.92c0,2.67,5.7,8.58,14.68,8.58c6.52,0,13.13-3.37,13.13-9.89
	C778.51,406.78,775.87,403.71,767.47,401.53z"/>
<path d="M605.89,286.92c7.04-5.13,15.72-8.16,25.11-8.16c23.25,0,42.16,18.91,42.16,42.16l0.01,46.12c0,3.75,3.04,6.8,6.79,6.8
	h27.94c3.77,0,6.8-3.05,6.8-6.8v-46.12c0-46.15-37.55-83.7-83.7-83.7c-20.34,0-39.01,7.23-53.56,19.24"/>
</svg>
