<svg width="385" height="92" viewBox="0 0 385 92" fill="none" xmlns="http://www.w3.org/2000/svg">
<path d="M24.4545 74.4177C21.3395 74.4177 18.417 74.2077 15.687 73.7877C12.992 73.4027 10.5245 72.8952 8.28451 72.2652C6.07951 71.6002 4.13701 70.9177 2.45701 70.2177L1.03951 55.0977C3.80451 56.3927 7.07701 57.6002 10.857 58.7202C14.637 59.8052 18.6445 60.3477 22.8795 60.3477C26.9745 60.3477 29.8795 59.8402 31.5945 58.8252C33.3445 57.7752 34.2195 56.1477 34.2195 53.9427V53.5752C34.2195 52.1052 33.817 50.9152 33.012 50.0052C32.242 49.0602 30.9295 48.2027 29.0745 47.4327C27.2545 46.6277 24.787 45.7702 21.672 44.8602C16.982 43.4602 13.062 41.9027 9.91201 40.1877C6.79701 38.4727 4.46951 36.3377 2.92951 33.7827C1.38951 31.1927 0.619507 27.9202 0.619507 23.9652V23.2827C0.619507 17.1927 2.68451 12.5377 6.81451 9.31774C10.9795 6.09774 17.087 4.48773 25.137 4.48773C29.967 4.48773 34.132 4.90774 37.632 5.74774C41.167 6.58773 44.1595 7.58523 46.6095 8.74023L48.027 22.8102C45.332 21.5152 42.2695 20.4302 38.8395 19.5552C35.4445 18.6452 31.8045 18.1902 27.9195 18.1902C25.1895 18.1902 23.037 18.4177 21.462 18.8727C19.922 19.3277 18.837 19.9927 18.207 20.8677C17.577 21.7077 17.262 22.7402 17.262 23.9652V24.1752C17.262 25.4352 17.612 26.5377 18.312 27.4827C19.047 28.4277 20.342 29.3377 22.197 30.2127C24.087 31.0877 26.7645 32.0327 30.2295 33.0477C34.8845 34.4127 38.7345 35.8827 41.7795 37.4577C44.8595 38.9977 47.152 41.0102 48.657 43.4952C50.197 45.9452 50.967 49.2177 50.967 53.3127V54.1527C50.967 60.9077 48.7795 65.9827 44.4045 69.3777C40.0295 72.7377 33.3795 74.4177 24.4545 74.4177Z" fill="white"/>
<path d="M74.9685 21.3927V51.7377C74.9685 53.6277 75.2135 55.2727 75.7035 56.6727C76.1935 58.0377 77.016 59.1052 78.171 59.8752C79.326 60.6102 80.901 60.9777 82.896 60.9777C84.576 60.9777 86.0285 60.6802 87.2535 60.0852C88.5135 59.4902 89.5635 58.6852 90.4035 57.6702C91.2785 56.6552 91.926 55.5352 92.346 54.3102L94.8135 61.8177H92.0835C91.5235 64.1277 90.596 66.2277 89.301 68.1177C88.041 70.0077 86.291 71.4952 84.051 72.5802C81.846 73.6652 79.011 74.2077 75.546 74.2077C71.731 74.2077 68.581 73.4727 66.096 72.0027C63.646 70.4977 61.826 68.2752 60.636 65.3352C59.481 62.3952 58.9035 58.7202 58.9035 54.3102V21.3927H74.9685ZM108.149 21.3927V73.0002H92.1885L92.7135 60.0852L92.0835 58.6152V21.3927H108.149Z" fill="white"/>
<path d="M134.599 44.0202L130.189 34.2552H133.969C134.809 29.9852 136.436 26.6427 138.851 24.2277C141.301 21.7777 144.749 20.5527 149.194 20.5527C149.964 20.5527 150.664 20.6052 151.294 20.7102C151.959 20.8152 152.589 20.9377 153.184 21.0777L153.971 37.3002C153.236 37.0902 152.379 36.9502 151.399 36.8802C150.419 36.7752 149.421 36.7227 148.406 36.7227C144.976 36.7227 142.089 37.3702 139.744 38.6652C137.399 39.9252 135.684 41.7102 134.599 44.0202ZM118.849 73.0002V21.3927H133.969L133.286 37.8777L134.914 38.0877V73.0002H118.849Z" fill="white"/>
<path d="M192.032 74.2077C188.952 74.2077 186.362 73.7002 184.262 72.6852C182.162 71.6702 180.482 70.2352 179.222 68.3802C177.997 66.4902 177.122 64.3027 176.597 61.8177H172.45L176.23 51.0027C176.3 53.1377 176.702 54.9402 177.437 56.4102C178.207 57.8802 179.292 59.0177 180.692 59.8227C182.127 60.5927 183.825 60.9777 185.785 60.9777C188.725 60.9777 190.947 60.1202 192.452 58.4052C193.992 56.6552 194.762 54.0652 194.762 50.6352V43.2852C194.762 39.8552 194.01 37.2827 192.505 35.5677C191.035 33.8527 188.83 32.9952 185.89 32.9952C184.245 32.9952 182.74 33.3102 181.375 33.9402C180.045 34.5702 178.907 35.4102 177.962 36.4602C177.052 37.4752 176.387 38.6477 175.967 39.9777L172.292 32.5752H176.545C177.07 30.2652 177.945 28.1827 179.17 26.3277C180.395 24.4377 182.092 22.9502 184.262 21.8652C186.432 20.7452 189.197 20.1852 192.557 20.1852C198.577 20.1852 203.127 22.1627 206.207 26.1177C209.322 30.0377 210.88 35.9352 210.88 43.8102V50.1102C210.88 58.0552 209.322 64.0577 206.207 68.1177C203.127 72.1777 198.402 74.2077 192.032 74.2077ZM160.48 91.0602V21.3927H176.44L175.915 35.3052L176.23 37.1427V56.9877L176.02 59.7177L176.44 73.5252V91.0602H160.48Z" fill="white"/>
<path d="M235.702 44.0202L231.292 34.2552H235.072C235.912 29.9852 237.54 26.6427 239.955 24.2277C242.405 21.7777 245.852 20.5527 250.297 20.5527C251.067 20.5527 251.767 20.6052 252.397 20.7102C253.062 20.8152 253.692 20.9377 254.287 21.0777L255.075 37.3002C254.34 37.0902 253.482 36.9502 252.502 36.8802C251.522 36.7752 250.525 36.7227 249.51 36.7227C246.08 36.7227 243.192 37.3702 240.847 38.6652C238.502 39.9252 236.787 41.7102 235.702 44.0202ZM219.952 73.0002V21.3927H235.072L234.39 37.8777L236.017 38.0877V73.0002H219.952Z" fill="white"/>
<path d="M261.636 73.0002V21.3927H277.701V73.0002H261.636ZM269.668 16.5102C266.658 16.5102 264.471 15.8277 263.106 14.4627C261.741 13.0627 261.058 11.1902 261.058 8.84524V8.47773C261.058 6.13274 261.741 4.27774 263.106 2.91274C264.471 1.54774 266.658 0.865234 269.668 0.865234C272.608 0.865234 274.761 1.54774 276.126 2.91274C277.526 4.27774 278.226 6.13274 278.226 8.47773V8.84524C278.226 11.2252 277.526 13.0977 276.126 14.4627C274.761 15.8277 272.608 16.5102 269.668 16.5102Z" fill="white"/>
<path d="M306.721 74.2602C302.626 74.2602 298.933 73.8927 295.643 73.1577C292.353 72.4577 289.536 71.6352 287.191 70.6902L285.826 57.1977C288.521 58.3177 291.496 59.3327 294.751 60.2427C298.041 61.1177 301.593 61.5552 305.408 61.5552C308.453 61.5552 310.606 61.2402 311.866 60.6102C313.161 59.9452 313.808 58.9302 313.808 57.5652V57.3552C313.808 56.4102 313.476 55.6402 312.811 55.0452C312.181 54.4152 311.061 53.8552 309.451 53.3652C307.876 52.8752 305.653 52.2977 302.783 51.6327C298.478 50.6177 295.066 49.4277 292.546 48.0627C290.026 46.6627 288.223 44.9652 287.138 42.9702C286.088 40.9402 285.563 38.5427 285.563 35.7777V35.3577C285.563 30.2477 287.383 26.4327 291.023 23.9127C294.663 21.3577 300.018 20.0802 307.088 20.0802C311.078 20.0802 314.666 20.4477 317.851 21.1827C321.036 21.9177 323.713 22.7927 325.883 23.8077L327.248 36.3552C324.728 35.2352 321.911 34.3077 318.796 33.5727C315.716 32.8377 312.478 32.4702 309.083 32.4702C307.018 32.4702 305.391 32.6102 304.201 32.8902C303.046 33.1702 302.223 33.5727 301.733 34.0977C301.278 34.6227 301.051 35.2702 301.051 36.0402V36.1977C301.051 37.0377 301.331 37.7552 301.891 38.3502C302.451 38.9452 303.466 39.5052 304.936 40.0302C306.441 40.5552 308.593 41.1502 311.393 41.8152C315.733 42.7602 319.233 43.8452 321.893 45.0702C324.553 46.2602 326.496 47.8177 327.721 49.7427C328.946 51.6327 329.558 54.1527 329.558 57.3027V57.7752C329.558 63.3402 327.686 67.4877 323.941 70.2177C320.196 72.9127 314.456 74.2602 306.721 74.2602Z" fill="white"/>
<path d="M362.774 74.3127C353.394 74.3127 346.464 72.2302 341.984 68.0652C337.504 63.8652 335.264 57.7577 335.264 49.7427V44.3877C335.264 36.4777 337.364 30.4227 341.564 26.2227C345.764 21.9877 351.872 19.8702 359.887 19.8702C365.277 19.8702 369.757 20.7977 373.327 22.6527C376.932 24.4727 379.627 27.0802 381.412 30.4752C383.232 33.8702 384.142 37.9477 384.142 42.7077V44.4402C384.142 45.7702 384.072 47.1352 383.932 48.5352C383.827 49.9002 383.669 51.1777 383.459 52.3677H368.969C369.109 50.3377 369.197 48.4302 369.232 46.6452C369.267 44.8252 369.284 43.1802 369.284 41.7102C369.284 39.5752 368.952 37.7902 368.287 36.3552C367.622 34.8852 366.589 33.7652 365.189 32.9952C363.824 32.2252 362.057 31.8402 359.887 31.8402C356.667 31.8402 354.304 32.7152 352.799 34.4652C351.329 36.1802 350.594 38.6302 350.594 41.8152V46.5402L350.699 48.2727V51.9477C350.699 53.2777 350.909 54.5377 351.329 55.7277C351.784 56.9177 352.554 57.9677 353.639 58.8777C354.759 59.7527 356.282 60.4527 358.207 60.9777C360.167 61.4677 362.652 61.7127 365.662 61.7127C368.847 61.7127 371.909 61.4152 374.849 60.8202C377.789 60.1902 380.607 59.3502 383.302 58.3002L381.989 70.3752C379.609 71.6002 376.792 72.5627 373.537 73.2627C370.282 73.9627 366.694 74.3127 362.774 74.3127ZM343.769 52.3677V42.4452H380.204V52.3677H343.769Z" fill="white"/>
</svg>
